# xmcd CD database file
#
# Track frame offsets:
#	150
#	14874
#	50356
#	64407
#	89289
#	99539
#	119450
#	147975
#	183936
#	197262
#	223040
#	250677
#	279107
#	304707
#
# Disc length: 4259 seconds
#
# Revision: 0
# Processed by: cddbd v1.5.2PL0 Copyright (c) Steve Scherf et al.
# Submitted via: CDex 1.70beta2
#
DISCID=c610a10e
DTITLE=Various Artist - 2007 - Kon and Amir presents Off Track - Volume One The Bronx [CD2)
DYEAR=2007
DGENRE=Jazz
TTITLE0=Pat Britt/Herman's Corner
TTITLE1=Horselmat/Right On
TTITLE2=Vincent Geminiani/Insideieusement Les Elfes
TTITLE3=The London Experimental Jazz Quartet/Destroy the Nihilist Picnic
TTITLE4=Zelia Barbosa/Opiniao
TTITLE5=Ex Pro Ovo/What's the Deal
TTITLE6=Gerry Olds Trio/Gerry's Samba
TTITLE7=Sathima Bea Benjamin/Africa
TTITLE8=Marius Cutler/Nestor: Ti Patte
TTITLE9=The Ed Kelly Ensemble/Samba
TTITLE10=Melvyn Price/Voodoo Love Dance
TTITLE11=The Lamont Johnson Sextette/Aces
TTITLE12=Larry Nozero/Tune for L.N.
TTITLE13=Anita Moore and the TSU Jass Ensemble/Compared to What?
EXTD=YEAR: 2007
EXTT0=
EXTT1=
EXTT2=
EXTT3=
EXTT4=
EXTT5=
EXTT6=
EXTT7=
EXTT8=
EXTT9=
EXTT10=
EXTT11=
EXTT12=
EXTT13=
PLAYORDER=
